<svg width="18" height="18" viewBox="0 0 18 18" fill="none" xmlns="http://www.w3.org/2000/svg">
<path fill-rule="evenodd" clip-rule="evenodd" d="M6.50033 17.9582H11.5003C16.0253 17.9582 17.9587 16.0248 17.9587 11.4998V6.49984C17.9587 1.97484 16.0253 0.0415039 11.5003 0.0415039H6.50033C1.97533 0.0415039 0.0419922 1.97484 0.0419922 6.49984V11.4998C0.0419922 16.0248 1.97533 17.9582 6.50033 17.9582ZM1.29199 6.49984C1.29199 2.65817 2.65866 1.2915 6.50033 1.2915H11.5003C15.342 1.2915 16.7087 2.65817 16.7087 6.49984V11.4998C16.7087 15.3415 15.342 16.7082 11.5003 16.7082H6.50033C2.65866 16.7082 1.29199 15.3415 1.29199 11.4998V6.49984ZM11.5003 10.6582C11.6253 10.7832 11.7837 10.8416 11.942 10.8416C12.1003 10.8416 12.2587 10.7832 12.3837 10.6582C12.6253 10.4166 12.6253 10.0166 12.3837 9.77489L9.442 6.83323C9.20033 6.59156 8.80033 6.59156 8.55866 6.83323L5.617 9.77489C5.37533 10.0166 5.37533 10.4166 5.617 10.6582C5.85866 10.8999 6.25866 10.8999 6.50033 10.6582L9.00033 8.15823L11.5003 10.6582Z" fill="#999FA6"/>
</svg>
