<svg width="18" height="18" viewBox="0 0 18 18" fill="none" xmlns="http://www.w3.org/2000/svg">
<path fill-rule="evenodd" clip-rule="evenodd" d="M6.50033 17.9582H11.5003C16.0253 17.9582 17.9587 16.0248 17.9587 11.4998V6.49984C17.9587 1.97484 16.0253 0.0415039 11.5003 0.0415039H6.50033C1.97533 0.0415039 0.0419922 1.97484 0.0419922 6.49984V11.4998C0.0419922 16.0248 1.97533 17.9582 6.50033 17.9582ZM1.29199 6.49984C1.29199 2.65817 2.65866 1.2915 6.50033 1.2915H11.5003C15.342 1.2915 16.7087 2.65817 16.7087 6.49984V11.4998C16.7087 15.3415 15.342 16.7082 11.5003 16.7082H6.50033C2.65866 16.7082 1.29199 15.3415 1.29199 11.4998V6.49984ZM8.55866 11.2416C8.68366 11.3666 8.842 11.4249 9.00033 11.4249C9.15866 11.4249 9.317 11.3666 9.442 11.2416L12.3837 8.29993C12.6253 8.05827 12.6253 7.65827 12.3837 7.4166C12.142 7.17493 11.742 7.17493 11.5003 7.4166L9.00033 9.9166L6.50033 7.4166C6.25866 7.17493 5.85866 7.17493 5.617 7.4166C5.37533 7.65827 5.37533 8.05827 5.617 8.29993L8.55866 11.2416Z" fill="#999FA6"/>
</svg>
