<svg width="16" height="16" viewBox="0 0 16 16" fill="none" xmlns="http://www.w3.org/2000/svg">
<path fill-rule="evenodd" clip-rule="evenodd" d="M7.99967 15.1668C4.04634 15.1668 0.833008 11.9535 0.833008 8.00016C0.833008 4.04683 4.04634 0.833496 7.99967 0.833496C11.953 0.833496 15.1663 4.04683 15.1663 8.00016C15.1663 11.9535 11.953 15.1668 7.99967 15.1668ZM7.99967 1.8335C4.59967 1.8335 1.83301 4.60016 1.83301 8.00016C1.83301 11.4002 4.59967 14.1668 7.99967 14.1668C11.3997 14.1668 14.1663 11.4002 14.1663 8.00016C14.1663 4.60016 11.3997 1.8335 7.99967 1.8335ZM6.113 10.3868C5.98634 10.3868 5.85967 10.3401 5.75967 10.2401C5.56634 10.0468 5.56634 9.72678 5.75967 9.53345L7.293 8.00011L5.75967 6.46678C5.56634 6.27345 5.56634 5.95345 5.75967 5.76011C5.953 5.56678 6.273 5.56678 6.46634 5.76011L7.99967 7.29345L9.533 5.76011C9.72634 5.56678 10.0463 5.56678 10.2397 5.76011C10.433 5.95345 10.433 6.27345 10.2397 6.46678L8.70634 8.00011L10.2397 9.53345C10.433 9.72678 10.433 10.0468 10.2397 10.2401C10.1397 10.3401 10.013 10.3868 9.88634 10.3868C9.75967 10.3868 9.633 10.3401 9.533 10.2401L7.99967 8.70678L6.46634 10.2401C6.373 10.3401 6.23967 10.3868 6.113 10.3868Z" fill="#999FA6"/>
</svg>
