<svg width="16" height="16" viewBox="0 0 16 16" fill="none" xmlns="http://www.w3.org/2000/svg">
<path fill-rule="evenodd" clip-rule="evenodd" d="M0.833008 7.66683C0.833008 11.4335 3.89967 14.5002 7.66634 14.5002C11.433 14.5002 14.4997 11.4335 14.4997 7.66683C14.4997 3.90016 11.433 0.833496 7.66634 0.833496C3.89967 0.833496 0.833008 3.90016 0.833008 7.66683ZM1.83301 7.66683C1.83301 4.4535 4.44634 1.8335 7.66634 1.8335C10.8863 1.8335 13.4997 4.4535 13.4997 7.66683C13.4997 10.8802 10.8863 13.5002 7.66634 13.5002C4.44634 13.5002 1.83301 10.8802 1.83301 7.66683ZM14.313 15.0201C14.413 15.1201 14.5397 15.1667 14.6663 15.1667C14.793 15.1667 14.9197 15.1201 15.0197 15.0201C15.213 14.8268 15.213 14.5068 15.0197 14.3134L13.6863 12.9801C13.493 12.7867 13.173 12.7867 12.9797 12.9801C12.7863 13.1734 12.7863 13.4934 12.9797 13.6868L14.313 15.0201Z" fill="#999FA6"/>
</svg>
